/* XPM */
static char *goboard[] = {
/* columns rows colors chars-per-pixel */
"19 19 2 1",
"  c black",
". c #F8FCF8",
/* pixels */
"                   ",
"                   ",
"                   ",
"                   ",
"                   ",
"                   ",
"     .  ....       ",
"           .       ",
"                   ",
"           .       ",
"         . .       ",
"         . .       ",
"         ...       ",
"                   ",
"                   ",
"   ..              ",
"                   ",
"                   ",
"                   "
};
